<?xml version="1.0" encoding="UTF-8"?>
<svg version="1.1" xmlns="http://www.w3.org/2000/svg" width="2480" height="2480">
<path d="M0 0 C1.46008296 4.38024887 -0.44963021 7.53937935 -2.05859375 11.66015625 C-2.39336731 12.53930695 -2.72814087 13.41845764 -3.07305908 14.32424927 C-4.18586064 17.24040225 -5.31172406 20.15133382 -6.4375 23.0625 C-7.22395771 25.11660108 -8.00950837 27.17104966 -8.79418945 29.22583008 C-10.40943044 33.45156404 -12.02966875 37.67532718 -13.65429688 41.89746094 C-15.75455291 47.35714341 -17.84212715 52.82153887 -19.921875 58.2890625 C-20.23236786 59.10525558 -20.54286072 59.92144867 -20.86276245 60.76237488 C-21.48884903 62.40829009 -22.11489683 64.05422005 -22.74090576 65.70016479 C-23.70329168 68.22899529 -24.66708141 70.75728632 -25.63134766 73.28540039 C-31.37712612 88.34983631 -37.09646602 103.42425634 -42.8125 118.5 C-49.76482504 136.83561974 -56.72065566 155.16989141 -63.6875 173.5 C-64.07378571 174.51634521 -64.46007141 175.53269043 -64.85806274 176.57983398 C-66.79638003 181.67956595 -68.73482941 186.7792477 -70.67333984 191.87890625 C-73.02872352 198.07536763 -75.38357519 204.2720311 -77.73828125 210.46875 C-78.1314856 211.50351471 -78.52468994 212.53827942 -78.92980957 213.60440063 C-80.90231316 218.79532982 -82.87475936 223.98628082 -84.84716797 229.17724609 C-88.52906364 238.86704432 -92.21142127 248.5566662 -95.89541626 258.2456665 C-97.61991261 262.78122151 -99.34414552 267.31687665 -101.06835938 271.85253906 C-101.88382074 273.99744567 -102.69940862 276.14230419 -103.51513672 278.28710938 C-104.65234768 281.2772186 -105.7890894 284.2675059 -106.92578125 287.2578125 C-107.28131577 288.19217133 -107.63685028 289.12653015 -108.00315857 290.08920288 C-109.59735315 294.28375848 -111.18300555 298.48087449 -112.73852539 302.68994141 C-121.40243447 326.12756828 -133.9815086 346.37887802 -150.93359375 364.74609375 C-152.76740558 366.7463006 -154.51037367 368.79343238 -156.25 370.875 C-197.94539907 418.51319158 -262.1378865 440.22484362 -320.24603271 459.42788696 C-326.71519024 461.56828616 -333.17484725 463.73625248 -339.6328125 465.91015625 C-370.61506551 476.32702569 -401.72919367 486.28410936 -432.92590332 496.03863525 C-435.82295052 496.94463117 -438.71966237 497.85168868 -441.61621094 498.75927734 C-450.40836079 501.51406492 -459.20212536 504.26354085 -468 507 C-468.33 506.34 -468.66 505.68 -469 505 C-467.85748779 504.41621582 -466.71497559 503.83243164 -465.5378418 503.23095703 C-461.20017614 501.01417139 -456.86329089 498.79586246 -452.52661133 496.57714844 C-450.66809193 495.62655308 -448.80937555 494.67634271 -446.95043945 493.7265625 C-436.48975048 488.38156094 -426.05188896 482.99846234 -415.6638031 477.5135498 C-408.7130851 473.84361998 -401.73607868 470.22715032 -394.75 466.625 C-392.23667397 465.32741332 -389.72373318 464.02908211 -387.2109375 462.73046875 C-386.59461456 462.41197464 -385.97829163 462.09348053 -385.34329224 461.76533508 C-378.7563144 458.35973953 -372.18322699 454.92773594 -365.61132812 451.49316406 C-358.16612283 447.60383883 -350.7091151 443.73757047 -343.25 439.875 C-335.69510135 435.96222643 -328.14760431 432.03702035 -320.625 428.0625 C-312.06227899 423.53929742 -303.46103158 419.09130602 -294.85705566 414.64727783 C-285.76019777 409.94853612 -276.67343338 405.23108465 -267.6003418 400.48657227 C-262.54622936 397.84514069 -257.48626208 395.21569605 -252.41796875 392.6015625 C-245.60237496 389.08602267 -238.79910019 385.54731365 -232 382 C-230.35475342 381.14607666 -230.35475342 381.14607666 -228.67626953 380.27490234 C-216.67829819 374.02749104 -205.22335258 367.93123441 -195 359 C-194.49082031 358.56478027 -193.98164062 358.12956055 -193.45703125 357.68115234 C-186.15066984 351.4143689 -179.88501247 344.63180062 -174 337 C-173.18789062 335.99195313 -172.37578125 334.98390625 -171.5390625 333.9453125 C-165.22966736 326.06039492 -159.94054267 317.7986671 -155 309 C-154.63503418 308.36046387 -154.27006836 307.72092773 -153.89404297 307.06201172 C-145.07324889 291.48387998 -138.15819199 274.94502016 -130.99755859 258.5625 C-129.16398084 254.36907142 -127.31264455 250.18371217 -125.45703125 246 C-118.73285236 230.81065438 -112.24569529 215.52842421 -105.875 200.1875 C-105.50883575 199.3072818 -105.14267151 198.4270636 -104.76541138 197.52017212 C-103.71297062 194.98734771 -102.66434699 192.45298059 -101.6171875 189.91796875 C-101.31045609 189.17956757 -101.00372467 188.44116638 -100.68769836 187.6803894 C-98.99175674 183.55854794 -97.40439854 179.40995787 -95.88796997 175.21846008 C-95.53289431 174.23816991 -95.17781864 173.25787973 -94.81198311 172.2478838 C-94.54402868 171.50608214 -94.27607426 170.76428049 -94 170 C-94.44039407 170.44191295 -94.88078815 170.88382591 -95.33452749 171.33913016 C-121.48591804 197.58020011 -147.64786838 223.81069881 -173.82341376 250.02767508 C-176.9723588 253.18162243 -180.12121625 256.33565722 -183.27001953 259.48974609 C-183.89684228 260.11761809 -184.52366503 260.74549008 -185.16948241 261.39238849 C-195.29410111 271.53437174 -205.41162133 281.68340769 -215.52649635 291.83510754 C-225.91973694 302.26586781 -236.32066136 312.68892043 -246.72863054 323.10498452 C-253.14109292 329.52291189 -259.5476199 335.94664521 -265.94647455 342.37814042 C-270.34600584 346.79895602 -274.7530369 351.21220577 -279.16580391 355.61980942 C-281.7044866 358.15595179 -284.23995969 360.69507896 -286.76650047 363.24332237 C-311.85585436 388.53710238 -344.52798146 414.90424444 -382.13934326 416.06608582 C-384.54169795 416.0659084 -386.94176512 416.03408124 -389.34375 415.9921875 C-391.16666092 415.97465234 -392.98957797 415.95774591 -394.8125 415.94140625 C-397.64471018 415.91068496 -400.47660087 415.87538646 -403.30859375 415.82861328 C-433.62812869 415.35553498 -459.18698467 424.78193695 -482 445 C-484.2495555 447.18676003 -486.42825809 449.42532441 -488.6015625 451.6875 C-493.16970013 456.09195843 -498.29585904 459.83195777 -503.3203125 463.69628906 C-506.60763811 466.24778888 -509.80634412 468.90713984 -513.01953125 471.55078125 C-521.73286229 478.71101528 -530.49434988 485.81306274 -539.3125 492.84375 C-542.88837821 495.71276857 -546.44387927 498.60655122 -550 501.5 C-555.08580649 505.6380824 -560.18586251 509.75629579 -565.3125 513.84375 C-568.88837821 516.71276857 -572.44387927 519.60655122 -576 522.5 C-581.08580649 526.6380824 -586.18586251 530.75629579 -591.3125 534.84375 C-594.88837821 537.71276857 -598.44387927 540.60655122 -602 543.5 C-607.08580649 547.6380824 -612.18586251 551.75629579 -617.3125 555.84375 C-620.88837821 558.71276857 -624.44387927 561.60655122 -628 564.5 C-633.08580649 568.6380824 -638.18586251 572.75629579 -643.3125 576.84375 C-646.88837821 579.71276857 -650.44387927 582.60655122 -654 585.5 C-659.08580649 589.6380824 -664.18586251 593.75629579 -669.3125 597.84375 C-672.88837821 600.71276857 -676.44387927 603.60655122 -680 606.5 C-685.0908562 610.64219112 -690.19559934 614.76494914 -695.328125 618.85546875 C-698.12289236 621.09863729 -700.90175056 623.3605123 -703.67944336 625.62475586 C-709.39250049 630.28156094 -715.1244097 634.90604251 -720.9375 639.4375 C-727.61087182 644.64540319 -734.13677837 650.02412228 -740.66015625 655.41796875 C-745.0277843 659.02815892 -749.41577842 662.61282261 -753.8125 666.1875 C-754.47620605 666.72810059 -755.13991211 667.26870117 -755.82373047 667.82568359 C-756.44521973 668.3305127 -757.06670898 668.8353418 -757.70703125 669.35546875 C-758.2481958 669.79528076 -758.78936035 670.23509277 -759.34692383 670.68823242 C-759.89243896 671.12111572 -760.4379541 671.55399902 -761 672 C-761.56936279 672.54043945 -762.13872559 673.08087891 -762.7253418 673.63769531 C-765.95304721 675.57078496 -769.03153558 675.44081033 -772.6875 675.44140625 C-773.42701904 675.45461411 -774.16653809 675.46782196 -774.9284668 675.48143005 C-777.28568305 675.52223735 -779.64251104 675.54396931 -782 675.5625 C-784.35736998 675.58632397 -786.71437622 675.61450133 -789.0715332 675.65428162 C-790.53608537 675.6785439 -792.00082969 675.69347947 -793.46557617 675.69789124 C-797.2272964 675.7552989 -799.72740693 676.19315775 -803 678 C-798.14450337 672.15295674 -792.91996032 666.77809304 -787.54150391 661.41210938 C-786.59773985 660.46698759 -785.65418808 659.52165379 -784.71083069 658.5761261 C-782.1655346 656.02629935 -779.6171194 653.47961213 -777.06796694 650.93364143 C-774.38897048 648.25719199 -771.7124321 645.5782861 -769.03549194 642.89978027 C-764.54010585 638.40257898 -760.04262506 633.90748061 -755.54394531 629.41357422 C-750.35931688 624.23438384 -745.17829602 619.05160558 -739.99914038 613.86694288 C-735.53623686 609.39948574 -731.07136796 604.93399986 -726.6048826 600.47012377 C-723.94437305 597.81116507 -721.28452421 595.1515549 -718.6264534 592.49015808 C-716.12524943 589.98604273 -713.62156843 587.48442951 -711.11604118 584.98464012 C-709.7705271 583.64105619 -708.42744138 582.29504174 -707.0844574 580.94892883 C-702.7729785 576.65230348 -698.38940191 572.52096125 -693.77526855 568.55151749 C-691.26937165 566.36145849 -688.92611338 564.03049943 -686.5847168 561.66650391 C-686.10378571 561.18250626 -685.62285461 560.69850861 -685.12734985 560.19984436 C-684.09890925 559.1643348 -683.07160862 558.12769195 -682.04538536 557.08998489 C-680.41053156 555.43745707 -678.77191825 553.78873923 -677.13227844 552.14096069 C-672.47613413 547.46061555 -667.82570591 542.77462266 -663.17993164 538.08398438 C-660.3221548 535.19913763 -657.45928882 532.31941871 -654.59342384 529.44260788 C-653.51482595 528.35788276 -652.43811651 527.27127587 -651.3635006 526.18260574 C-644.577731 519.30887881 -637.58083051 512.99767183 -630 507 C-627.81751673 505.1845191 -625.6603417 503.34197555 -623.5 501.5 C-619.55427075 498.14463665 -615.58355203 494.82775957 -611.5625 491.5625 C-607.31607618 488.10725849 -603.14703706 484.57302166 -599 481 C-593.98403597 476.67832458 -588.90824892 472.44520959 -583.76953125 468.26953125 C-578.45558334 463.91494206 -573.23473234 459.44921565 -568 455 C-560.98765442 449.0399173 -553.95039195 443.12241205 -546.8125 437.3125 C-543.1190609 434.2756723 -539.47701514 431.18039045 -535.83374023 428.08374023 C-532.44045891 425.2045468 -529.01732214 422.36795763 -525.5625 419.5625 C-521.31607618 416.10725849 -517.14703706 412.57302166 -513 409 C-507.98107986 404.67577765 -502.90490415 400.43732028 -497.7578125 396.265625 C-495.28285067 394.23237024 -492.84778517 392.15911986 -490.42138672 390.06835938 C-467.90692836 370.74487281 -444.03031543 354.07002707 -413.4375 353.625 C-384.29477235 352.77948602 -358.8314193 339.52270455 -336 322 C-335.25862793 321.43885498 -334.51725586 320.87770996 -333.75341797 320.29956055 C-326.93334423 315.01174711 -320.89761071 309.10291058 -314.875 302.9375 C-309.39926354 297.35360317 -303.9398611 291.85126771 -297.99267578 286.76782227 C-293.97696908 283.20524787 -290.26400654 279.32442398 -286.5 275.5 C-277.5463451 266.40262672 -277.5463451 266.40262672 -273.03125 262.53125 C-268.08832335 258.28811954 -263.56893643 253.63816274 -259 249 C-253.81820006 243.73968794 -248.62939118 238.60749253 -243.0234375 233.80078125 C-239.00186948 230.22174099 -235.27483014 226.33542131 -231.5 222.5 C-222.5463451 213.40262672 -222.5463451 213.40262672 -218.03125 209.53125 C-213.08832335 205.28811954 -208.56893643 200.63816274 -204 196 C-198.81820006 190.73968794 -193.62939118 185.60749253 -188.0234375 180.80078125 C-184.00186948 177.22174099 -180.27483014 173.33542131 -176.5 169.5 C-167.5463451 160.40262672 -167.5463451 160.40262672 -163.03125 156.53125 C-158.08832335 152.28811954 -153.56893643 147.63816274 -149 143 C-143.81820006 137.73968794 -138.62939118 132.60749253 -133.0234375 127.80078125 C-129.00186948 124.22174099 -125.27483014 120.33542131 -121.5 116.5 C-116.49079531 111.41039074 -111.45977219 106.46995399 -106.04101562 101.81835938 C-102.01503106 98.23157312 -98.28078502 94.34147178 -94.5 90.5 C-85.5463451 81.40262672 -85.5463451 81.40262672 -81.03125 77.53125 C-76.08832335 73.28811954 -71.56893643 68.63816274 -67 64 C-61.81820006 58.73968794 -56.62939118 53.60749253 -51.0234375 48.80078125 C-47.00186948 45.22174099 -43.27483014 41.33542131 -39.5 37.5 C-30.5460196 28.402296 -30.5460196 28.402296 -26.0546875 24.5546875 C-20.9697114 20.19069653 -16.32570541 15.39473192 -11.625 10.625 C-9.8486586 8.82324599 -8.07012661 7.02364817 -6.2890625 5.2265625 C-5.12431396 4.04441162 -5.12431396 4.04441162 -3.93603516 2.83837891 C-2 1 -2 1 0 0 Z " fill="#3B2A22" transform="translate(1880,855)"/>
<path d="M0 0 C6.12580064 4.90064051 11.28245813 10.5447103 16.51757812 16.36035156 C18.96957723 19.07241118 21.45422507 21.75410471 23.9375 24.4375 C24.94538099 25.52858257 25.95319318 26.6197287 26.9609375 27.7109375 C27.97393162 28.80731635 28.98695249 29.90367048 30 31 C36.29846975 37.81626302 42.59025261 44.63829457 48.85791016 51.48291016 C53.71841122 56.78859486 58.60080912 62.07398724 63.48388672 67.35888672 C65.99014104 70.07177586 68.49500446 72.78594859 71 75.5 C71.99999324 76.58333957 72.99999324 77.66667291 74 78.75 C83 88.5 83 88.5 92 98.25 C92.49516113 98.78641113 92.99032227 99.32282227 93.50048828 99.87548828 C94.49891478 100.95714408 95.49728731 102.03884968 96.49560547 103.12060547 C99.52916697 106.40754111 102.56462411 109.69270991 105.60205078 112.97607422 C107.11261901 114.61159487 108.61881826 116.25106541 110.125 117.890625 C111.93792232 119.86108736 113.77018034 121.80227118 115.625 123.734375 C137.75220489 147.10623517 148.69300899 178.72421375 159.91796875 208.28540039 C169.17052123 234.43363505 169.17052123 234.43363505 186 256 C188.6149371 257.04431656 188.6149371 257.04431656 191.5 257.75 C217.5307408 265.96526402 238.3458922 293.02043929 251.4375 315.5 C252.85214388 317.91211924 254.27105094 320.32170887 255.69140625 322.73046875 C256.05028931 323.33936447 256.40917236 323.94826019 256.77893066 324.5756073 C260.39935629 330.70292407 264.12838521 336.76164234 267.875 342.8125 C273.63575615 352.12411594 279.31564675 361.47910929 284.9375 370.875 C290.78306092 380.64307717 296.64949969 390.39757397 302.5625 400.125 C302.9112619 400.6987738 303.2600238 401.27254761 303.61935425 401.8637085 C305.37612643 404.75350712 307.13348615 407.64294788 308.89111328 410.53222656 C311.01122251 414.01779865 313.12897417 417.50479889 315.24609375 420.9921875 C315.773489 421.86080917 315.773489 421.86080917 316.3115387 422.74697876 C318.07198123 425.64667654 319.83166686 428.54682978 321.59008789 431.44775391 C324.91325265 436.92826122 328.24389016 442.40385273 331.59802246 447.86547852 C333.18590917 450.45199897 334.76998289 453.04084433 336.35375977 455.62988281 C337.11145508 456.86608007 337.87102697 458.10112928 338.63256836 459.33496094 C339.68683998 461.0433256 340.73420438 462.75594705 341.78125 464.46875 C342.38001953 465.44263672 342.97878906 466.41652344 343.59570312 467.41992188 C345 470 345 470 346 474 C342.37 477.3 338.74 480.6 335 484 C330.64940475 481.82470237 329.3978722 480.22881112 326.5625 476.375 C325.6791042 475.19379844 324.7935845 474.01418313 323.90625 472.8359375 C323.43703125 472.21170898 322.9678125 471.58748047 322.484375 470.94433594 C314.81189737 460.89439978 306.59951203 451.23336541 298.38574219 441.62402344 C296.94270908 439.93285779 295.50625183 438.23625381 294.0703125 436.5390625 C288.09310271 429.49491102 281.95677333 422.63461886 275.66015625 415.875 C273.60578506 413.65471043 271.59663351 411.41782694 269.625 409.125 C258.31029485 396.09703286 246.07486313 383.91599788 233.86621094 371.73583984 C231.10494716 368.97998645 228.3491364 366.21875972 225.59375 363.45703125 C223.81542508 361.67936641 222.03679037 359.90201141 220.2578125 358.125 C219.44619659 357.31135986 218.63458069 356.49771973 217.79837036 355.65942383 C213.5775268 351.45574642 209.28689717 347.39982193 204.76213074 343.52401733 C201.82098686 340.98030468 199.01545579 338.29296753 196.1875 335.625 C192.0881209 331.78371173 187.95546333 328.07031401 183.5625 324.5625 C176.34649614 318.7705676 169.67751016 312.39668029 163 306 C162.4730957 305.49645996 161.94619141 304.99291992 161.40332031 304.47412109 C154.71457113 298.04634278 148.73285505 291.28489702 143 284 C142.11692256 282.90671354 141.23276394 281.8142997 140.34765625 280.72265625 C121.85541092 257.76980574 108.08913549 231.78770357 94.32324219 205.83935547 C83.96046242 186.33602515 73.11450656 167.54381021 59.57421875 150.06152344 C57.27871836 147.05544321 55.06126659 143.9941624 52.83618164 140.93579102 C46.28937295 131.94508072 39.4599941 123.24841632 32.37646484 114.67626953 C30.53388938 112.43236688 28.73538319 110.15479002 26.9375 107.875 C19.39717533 98.4297512 11.40965586 89.35822561 3.23828125 80.45703125 C1.24682664 78.27094931 -0.69672513 76.05417394 -2.625 73.8125 C-5.65688319 70.3147246 -8.90189956 67.07812995 -12.19921875 63.83203125 C-14.31146524 61.68312973 -16.19266075 59.40978566 -18 57 C-22.98563065 57.64349646 -27.48460409 59.11482972 -32.171875 60.859375 C-32.98079193 61.15545151 -33.78970886 61.45152802 -34.62313843 61.75657654 C-36.39431647 62.4055199 -38.16461649 63.05686351 -39.93414307 63.71029663 C-43.83897743 65.15208488 -47.74811734 66.58204006 -51.65689087 68.0131073 C-53.77298257 68.7880523 -55.8888419 69.56363207 -58.00448608 70.33979797 C-69.48534909 74.55080723 -80.98410204 78.71206524 -92.48400879 82.87072754 C-97.40963942 84.65209266 -102.33475261 86.4348862 -107.2598877 88.21762085 C-111.01467732 89.57670354 -114.76953933 90.93558608 -118.52441406 92.29443359 C-125.86807908 94.95213524 -133.21143572 97.61068808 -140.5546875 100.26953125 C-141.74789108 100.70155853 -142.94109467 101.13358582 -144.17045593 101.57870483 C-150.18930836 103.75800894 -156.20809654 105.93749035 -162.22680664 108.1171875 C-173.18524736 112.08562953 -184.14412776 116.05283667 -195.10513306 120.01419067 C-220.0883075 129.0432711 -245.06245436 138.09552288 -270 147.25 C-271.06590363 147.64093842 -272.13180725 148.03187683 -273.23001099 148.43466187 C-276.1955235 149.52275137 -279.16039561 150.61256402 -282.125 151.703125 C-283.00216171 152.02495255 -283.87932343 152.34678009 -284.7830658 152.67835999 C-285.57910721 152.97173752 -286.37514862 153.26511505 -287.1953125 153.56738281 C-287.88641113 153.82158997 -288.57750977 154.07579712 -289.28955078 154.33770752 C-291.07410958 154.99785416 -291.07410958 154.99785416 -293 156 C-253.39888019 172.37640293 -213.30701046 182.22285613 -170.3125 182.25 C-169.35258148 182.25067474 -168.39266296 182.25134949 -167.40365601 182.25204468 C-152.73331336 182.23567477 -138.45701528 181.68595988 -124 179 C-122.55633057 178.74259033 -122.55633057 178.74259033 -121.08349609 178.47998047 C-84.56612519 171.8496157 -49.2700698 159.2496727 -18.08984375 138.93359375 C-15 137 -15 137 -12 136 C-19.95003539 163.58570899 -29.04222656 191.21839255 -55.15576172 206.01123047 C-70.62307079 214.30387036 -88.75501806 218.05245531 -106.22265625 218.23828125 C-106.99235748 218.24816574 -107.76205872 218.25805023 -108.55508423 218.26823425 C-191.357091 219.10835075 -272.75500735 187.88865143 -359 146 C-359 145.34 -359 144.68 -359 144 C-342.73599059 137.17481079 -326.40142539 130.53423173 -310.01938057 123.99769402 C-304.49545809 121.79342293 -298.97286971 119.58581377 -293.45019531 117.37841797 C-292.3216491 116.9273981 -291.19310289 116.47637823 -290.03035831 116.01169109 C-278.87051949 111.55064219 -267.71739487 107.07296172 -256.56640625 102.58984375 C-255.60374155 102.20283987 -254.64107685 101.81583599 -253.64924049 101.41710472 C-248.68229336 99.42022536 -243.71549812 97.42296858 -238.74880981 95.42544556 C-232.31378989 92.8373846 -225.87847199 90.25006508 -219.44311523 87.6628418 C-210.30575432 83.98927535 -201.16846919 80.31552051 -192.03125 76.64160156 C-151.6901088 60.42124316 -111.34824438 44.20268288 -71 28 C-70.14938995 27.65841354 -69.29877991 27.31682709 -68.4223938 26.96488953 C-59.35547851 23.32395793 -50.28772761 19.68512863 -41.21774292 16.05184937 C-39.00488442 15.1652424 -36.79224576 14.27808647 -34.5798645 13.39028931 C-23.1034541 8.7858661 -11.60335799 4.27546688 0 0 Z " fill="#3B2A22" transform="translate(871,886)"/>
<path d="M0 0 C0.96164062 0.49113281 1.92328125 0.98226562 2.9140625 1.48828125 C11.11068296 5.92546985 17.39459427 11.5422011 24 18 C24.75796875 18.69609375 25.5159375 19.3921875 26.296875 20.109375 C55.91056326 47.99379679 79.78718942 96.24484119 82.23046875 136.828125 C82.24640808 139.56968992 82.19641824 142.26651281 82 145 C79.15366907 143.62523336 76.47539915 142.10272567 73.796875 140.42578125 C44.64189863 122.3868853 14.43010375 112.12156549 -20 120 C-31.26454978 123.13384248 -41.68830227 128.59732858 -52 134 C-47.78709203 118.99848114 -33.83558274 107.77160141 -21 100 C-3.88831026 90.56770273 16.6461481 86.29956701 36 90 C25.58605378 65.97229168 10.70861616 45.7749221 -14 35 C-15.0725 34.53207031 -16.145 34.06414062 -17.25 33.58203125 C-30.58378439 28.26935153 -41.77328658 28.94593932 -55 34 C-55.86496094 34.32258789 -56.72992187 34.64517578 -57.62109375 34.97753906 C-80.71259446 43.64847507 -102.55137458 54.16668089 -123 68 C-123.6305127 68.42490723 -124.26102539 68.84981445 -124.91064453 69.28759766 C-146.98348056 84.29427114 -176.29444966 104.27773777 -182 132 C-184.08434295 150.1298509 -175.03276211 165.86760512 -167.96414185 182.07910156 C-165.47574136 187.7869094 -163.00214007 193.50112742 -160.52734375 199.21484375 C-160.04180527 200.33494843 -159.55626678 201.4550531 -159.05601501 202.60910034 C-155.32967201 211.21411329 -151.6675914 219.84358867 -148.0625 228.5 C-142.82893208 241.06400614 -137.48849612 253.57965284 -132.10961914 266.08203125 C-128.68966652 274.03434552 -125.30578064 281.99928723 -122 290 C-118.73370534 290 -116.95895462 287.79747491 -114.4375 285.8125 C-113.25945912 284.89148622 -112.08105522 283.97093665 -110.90234375 283.05078125 C-110.27183105 282.55658691 -109.64131836 282.06239258 -108.99169922 281.55322266 C-105.51504056 278.84195735 -102.00568492 276.17355329 -98.5 273.5 C-91.32157637 268.01518194 -84.15754546 262.51202935 -77 257 C-74.83355349 255.33304708 -72.66677503 253.66652587 -70.5 252 C-69.41666062 251.16667453 -68.33332728 250.3333412 -67.25 249.5 C-21.75 214.5 -21.75 214.5 -20.12231445 213.24804688 C-19.04778747 212.42141302 -17.97340401 211.59459257 -16.89916992 210.76757812 C-14.0572976 208.58012693 -11.21241318 206.3967396 -8.36328125 204.21875 C-7.47189453 203.53619141 -7.47189453 203.53619141 -6.5625 202.83984375 C-5.42148558 201.96625458 -4.27959914 201.09380284 -3.13671875 200.22265625 C-0.9726224 198.5642407 1.06947693 196.93052307 3 195 C2.35933594 194.46632813 1.71867187 193.93265625 1.05859375 193.3828125 C-8.50215378 185.14717603 -16.83355228 175.55166621 -18.4140625 162.609375 C-18.81214944 152.92957681 -16.46707089 146.25992047 -10.5625 138.6875 C-7.83225223 135.82406941 -5.15579351 133.38437732 -2 131 C-1.34 131 -0.68 131 0 131 C-0.2165625 131.94746094 -0.2165625 131.94746094 -0.4375 132.9140625 C-3.50583424 147.70172889 -2.96237806 160.74470253 5.2890625 173.625 C16.08689073 188.61376613 34.62618096 196.32766747 52 201 C52.33 202.65 52.66 204.3 53 206 C-6.5 252.75 -6.5 252.75 -8.24975586 254.12475586 C-9.4173041 255.04215009 -10.58478449 255.95963067 -11.75219727 256.87719727 C-14.6548279 259.15844245 -17.55859274 261.43821214 -20.46484375 263.71484375 C-25.81695098 267.91000342 -31.15642325 272.1182858 -36.45507812 276.38085938 C-42.38671411 281.15236466 -48.37336132 285.83538133 -54.4375 290.4375 C-60.81644958 295.27993016 -67.06423312 300.25852791 -73.25927734 305.33349609 C-77.31004873 308.64575677 -81.40111609 311.89042864 -85.5625 315.0625 C-89.56291213 318.11207526 -93.5188827 321.20223498 -97.43408203 324.36035156 C-100.61082985 326.92189867 -103.80332352 329.46338812 -107 332 C-107.7125293 332.56702637 -108.42505859 333.13405273 -109.15917969 333.71826172 C-111.32432455 335.43093823 -113.50349752 337.1239645 -115.6875 338.8125 C-116.35885986 339.34665527 -117.03021973 339.88081055 -117.72192383 340.43115234 C-122.4464121 344.04183483 -122.4464121 344.04183483 -125.0546875 343.84472656 C-127.46894929 342.79636489 -128.13229887 341.8292649 -129.48828125 339.58984375 C-130.16491821 338.49470459 -130.16491821 338.49470459 -130.85522461 337.37744141 C-131.33612549 336.57226074 -131.81702637 335.76708008 -132.3125 334.9375 C-133.38266097 333.1939174 -134.45298094 331.45043239 -135.5234375 329.70703125 C-136.08772461 328.77842285 -136.65201172 327.84981445 -137.23339844 326.89306641 C-139.63642257 322.95776569 -142.08829958 319.05390766 -144.53979492 315.14868164 C-150.42870406 305.76567127 -156.26560735 296.35057506 -162.09008789 286.92749023 C-166.16675117 280.33600622 -170.26593135 273.75882658 -174.375 267.1875 C-175.31581421 265.68292236 -175.31581421 265.68292236 -176.27563477 264.14794922 C-179.42257685 259.11686869 -182.57178535 254.08721451 -185.72265625 249.05859375 C-192.94324622 237.52843668 -200.10595082 225.96481962 -207.22363281 214.37084961 C-211.17045279 207.94978113 -215.1521248 201.55325721 -219.1875 195.1875 C-220.14064909 193.67970273 -221.09377412 192.17189025 -222.046875 190.6640625 C-223.59112781 188.22196392 -225.13892698 185.78231568 -226.69335938 183.34667969 C-239.85166897 162.70376003 -239.85166897 162.70376003 -243 153 C-243.46986328 151.74123047 -243.46986328 151.74123047 -243.94921875 150.45703125 C-246.20584822 143.38081304 -246.3092359 136.30083095 -246.375 128.9375 C-246.38893799 127.93235352 -246.40287598 126.92720703 -246.41723633 125.89160156 C-246.30030834 107.29853271 -237.63582977 91.74739442 -224.765625 78.7421875 C-212.47237686 67.23273706 -198.25649597 57.86747819 -184 49 C-183.40461426 48.62842773 -182.80922852 48.25685547 -182.19580078 47.87402344 C-177.84163747 45.17194986 -173.43135325 42.57310709 -169 40 C-168.19320801 39.52820312 -167.38641602 39.05640625 -166.55517578 38.5703125 C-152.50676212 30.39593556 -138.14632336 22.91637163 -123.625 15.625 C-122.79235626 15.20479584 -121.95971252 14.78459167 -121.10183716 14.35165405 C-105.66931761 6.57862981 -89.72563949 -1.42036062 -73 -6 C-71.92234375 -6.29777344 -70.8446875 -6.59554687 -69.734375 -6.90234375 C-46.88707464 -12.17666734 -20.89768429 -11.20191185 0 0 Z " fill="#3B2A22" transform="translate(1370,993)"/>
<path d="M0 0 C0.33 0.66 0.66 1.32 1 2 C0.29138261 4.11705761 -0.52522493 6.19822518 -1.38671875 8.2578125 C-1.64499954 8.87969452 -1.90328033 9.50157654 -2.16938782 10.14230347 C-2.71987397 11.46358182 -3.27412158 12.78329824 -3.83178711 14.1015625 C-4.67399104 16.09305642 -5.50502126 18.08890125 -6.33398438 20.0859375 C-7.86010261 23.73765638 -9.39345958 27.38260107 -11 31 C-11.51793247 32.20802654 -12.03586494 33.41605309 -12.56949234 34.66068649 C-15.25800056 39.97824249 -19.25795586 43.81239376 -23.45965576 47.96759033 C-24.75254371 49.26983822 -24.75254371 49.26983822 -26.07155061 50.59839416 C-28.45303844 52.99303151 -30.84312035 55.37844134 -33.23737454 57.76027322 C-35.82288728 60.33670918 -38.39682973 62.92466138 -40.9723053 65.51112366 C-46.01663372 70.5732199 -51.07169488 75.62446442 -56.13071039 80.67187819 C-60.24777221 84.77989115 -64.36089454 88.89181033 -68.47126007 93.00652313 C-69.05725049 93.59312648 -69.64324091 94.17972983 -70.24698861 94.78410904 C-71.43766068 95.9760601 -72.62832381 97.16802008 -73.8189781 98.3599889 C-84.98209743 109.53451102 -96.15743624 120.69674799 -107.33700278 131.85481212 C-116.9039733 141.40394935 -126.46046061 150.9634725 -136.00927734 160.53076172 C-147.11612849 171.65908958 -158.22953181 182.78080752 -169.35324597 193.89228129 C-170.54315588 195.08091714 -171.73305751 196.26956127 -172.92295074 197.45821381 C-173.50827489 198.04292085 -174.09359903 198.62762789 -174.69666027 199.23005332 C-178.7960792 203.32603689 -182.89087586 207.42660577 -186.98384857 211.52902985 C-191.98681776 216.54329786 -196.99701434 221.55021338 -202.01619628 226.54825458 C-204.57099842 229.09264545 -207.12268832 231.6399411 -209.66558266 234.19623756 C-234.82196413 259.47385349 -267.48120549 285.9027995 -305.13934326 287.06608582 C-307.54169795 287.0659084 -309.94176512 287.03408124 -312.34375 286.9921875 C-314.16666092 286.97465234 -315.98957797 286.95774591 -317.8125 286.94140625 C-320.64471018 286.91068496 -323.47660087 286.87538646 -326.30859375 286.82861328 C-356.62812869 286.35553498 -382.18698467 295.78193695 -405 316 C-407.2495555 318.18676003 -409.42825809 320.42532441 -411.6015625 322.6875 C-416.16970013 327.09195843 -421.29585904 330.83195777 -426.3203125 334.69628906 C-429.60763811 337.24778888 -432.80634412 339.90713984 -436.01953125 342.55078125 C-444.73286229 349.71101528 -453.49434988 356.81306274 -462.3125 363.84375 C-465.88837821 366.71276857 -469.44387927 369.60655122 -473 372.5 C-478.08580649 376.6380824 -483.18586251 380.75629579 -488.3125 384.84375 C-491.88837821 387.71276857 -495.44387927 390.60655122 -499 393.5 C-504.08580649 397.6380824 -509.18586251 401.75629579 -514.3125 405.84375 C-517.88837821 408.71276857 -521.44387927 411.60655122 -525 414.5 C-530.08580649 418.6380824 -535.18586251 422.75629579 -540.3125 426.84375 C-543.88837821 429.71276857 -547.44387927 432.60655122 -551 435.5 C-556.08580649 439.6380824 -561.18586251 443.75629579 -566.3125 447.84375 C-569.88837821 450.71276857 -573.44387927 453.60655122 -577 456.5 C-582.08580649 460.6380824 -587.18586251 464.75629579 -592.3125 468.84375 C-595.88837821 471.71276857 -599.44387927 474.60655122 -603 477.5 C-608.0908562 481.64219112 -613.19559934 485.76494914 -618.328125 489.85546875 C-621.12289236 492.09863729 -623.90175056 494.3605123 -626.67944336 496.62475586 C-632.39250049 501.28156094 -638.1244097 505.90604251 -643.9375 510.4375 C-650.61087182 515.64540319 -657.13677837 521.02412228 -663.66015625 526.41796875 C-668.0277843 530.02815892 -672.41577842 533.61282261 -676.8125 537.1875 C-677.47620605 537.72810059 -678.13991211 538.26870117 -678.82373047 538.82568359 C-679.44521973 539.3305127 -680.06670898 539.8353418 -680.70703125 540.35546875 C-681.2481958 540.79528076 -681.78936035 541.23509277 -682.34692383 541.68823242 C-682.89243896 542.12111572 -683.4379541 542.55399902 -684 543 C-684.57097412 543.54350098 -685.14194824 544.08700195 -685.73022461 544.64697266 C-688.9505852 546.5666498 -691.97351806 546.37325672 -695.609375 546.29296875 C-696.33618469 546.28872391 -697.06299438 546.28447906 -697.81182861 546.28010559 C-700.12493504 546.2633613 -702.43715855 546.22571885 -704.75 546.1875 C-706.32160197 546.17244758 -707.89321764 546.15876015 -709.46484375 546.14648438 C-713.31023415 546.11347195 -717.15496756 546.06172056 -721 546 C-718.24891247 543.20736327 -715.51557596 540.48786256 -712.46875 538.01953125 C-711.83018066 537.50076416 -711.19161133 536.98199707 -710.53369141 536.44750977 C-709.86257324 535.90795654 -709.19145508 535.36840332 -708.5 534.8125 C-707.43724854 533.95386353 -707.43724854 533.95386353 -706.35302734 533.07788086 C-700.57235428 528.4238611 -694.70873615 523.88894966 -688.80908203 519.38671875 C-685.21286142 516.6301016 -681.63860911 513.8451248 -678.0625 511.0625 C-677.2905127 510.46187744 -676.51852539 509.86125488 -675.72314453 509.24243164 C-670.57701723 505.23536165 -665.44450973 501.21136913 -660.31958008 497.17724609 C-651.79942345 490.47545266 -643.22861873 483.8383952 -634.66796875 477.18847656 C-627.099269 471.30842369 -619.53107679 465.42820824 -612 459.5 C-602.92206289 452.35415578 -593.79164394 445.27575356 -584.66796875 438.18847656 C-577.099269 432.30842369 -569.53107679 426.42820824 -562 420.5 C-554.46316591 414.56725981 -546.88902129 408.68278082 -539.31445312 402.79833984 C-535.54184368 399.86700639 -531.77097422 396.93343657 -528 394 C-523.45402154 390.46368851 -518.90762452 386.92792157 -514.359375 383.39453125 C-507.56070648 378.11178206 -500.76531519 372.82542668 -494 367.5 C-484.92206289 360.35415578 -475.79164394 353.27575356 -466.66796875 346.18847656 C-454.33636154 336.6132386 -454.33636154 336.6132386 -442.0546875 326.97412109 C-439.17743528 324.70326651 -436.28859103 322.45066591 -433.375 320.2265625 C-428.00125481 316.10373342 -422.87703579 312.03671346 -418.1875 307.125 C-397.101983 285.34701939 -368.74984521 268.92260625 -338.10083008 268.41676331 C-335.3796365 268.39046216 -332.65880867 268.38082981 -329.9375 268.375 C-298.60455401 268.18518794 -266.17763974 263.98408529 -242 242 C-240.14220731 240.03521323 -238.31475248 238.05972084 -236.50488281 236.05224609 C-230.14424439 229.0843575 -223.53617857 222.3900431 -216.859375 215.7265625 C-215.64001202 214.50652312 -214.42079728 213.28633557 -213.20172119 212.06600952 C-210.67222955 209.53505953 -208.1409792 207.00588611 -205.60839844 204.47802734 C-202.38206125 201.25741714 -199.16027788 198.03229449 -195.939785 194.80584145 C-193.43300754 192.29543375 -190.92383282 189.78743299 -188.41394806 187.28013229 C-187.22523131 186.09207642 -186.03723966 184.90329455 -184.85002899 183.71373367 C-183.18857601 182.04970981 -181.52389769 180.38897669 -179.85839844 178.72900391 C-179.38237183 178.25095306 -178.90634521 177.77290222 -178.41589355 177.28036499 C-175.78503159 174.66546216 -173.07950824 172.18444435 -170.26604843 169.766469 C-166.26523713 166.27606575 -162.48036908 162.618142 -158.73596191 158.85621643 C-158.05125682 158.17236576 -157.36655173 157.4885151 -156.661098 156.78394169 C-154.38952675 154.51400486 -152.12152526 152.24053601 -149.85351562 149.96704102 C-148.21710335 148.3303464 -146.58047032 146.69387249 -144.94363403 145.05760193 C-140.51638754 140.63064159 -136.09222461 136.20061131 -131.66861916 131.77001309 C-127.03929698 127.13442711 -122.40713069 122.5016849 -117.77526855 117.86863708 C-110.00636 110.09714306 -102.23936453 102.3237407 -94.47363281 94.54907227 C-86.47806597 86.54431384 -78.48144015 78.54061574 -70.48339844 70.53833008 C-69.98965896 70.04432788 -69.49591948 69.55032568 -68.9872182 69.04135371 C-66.5100447 66.56287508 -64.03285047 64.08441717 -61.55564594 61.60596955 C-41.03388422 41.0738562 -20.51578651 20.53808377 0 0 Z " fill="#E59B51" transform="translate(1803,984)"/>
<path d="M0 0 C6.12580064 4.90064051 11.28245813 10.5447103 16.51757812 16.36035156 C18.96957723 19.07241118 21.45422507 21.75410471 23.9375 24.4375 C24.94538099 25.52858257 25.95319318 26.6197287 26.9609375 27.7109375 C27.97393162 28.80731635 28.98695249 29.90367048 30 31 C36.29846975 37.81626302 42.59025261 44.63829457 48.85791016 51.48291016 C53.71841122 56.78859486 58.60080912 62.07398724 63.48388672 67.35888672 C65.99014104 70.07177586 68.49500446 72.78594859 71 75.5 C71.99999324 76.58333957 72.99999324 77.66667291 74 78.75 C80 85.25 86 91.75 92 98.25 C92.7427417 99.0546167 92.7427417 99.0546167 93.50048828 99.87548828 C94.49891478 100.95714408 95.49728731 102.03884968 96.49560547 103.12060547 C99.52916697 106.40754111 102.56462411 109.69270991 105.60205078 112.97607422 C107.11261901 114.61159487 108.61881826 116.25106541 110.125 117.890625 C111.93792232 119.86108736 113.77018034 121.80227118 115.625 123.734375 C137.75220489 147.10623517 148.69300899 178.72421375 159.91796875 208.28540039 C169.17052123 234.43363505 169.17052123 234.43363505 186 256 C188.6149371 257.04431656 188.6149371 257.04431656 191.5 257.75 C217.5307408 265.96526402 238.3458922 293.02043929 251.4375 315.5 C252.85214388 317.91211924 254.27105094 320.32170887 255.69140625 322.73046875 C256.05028931 323.33936447 256.40917236 323.94826019 256.77893066 324.5756073 C260.39935629 330.70292407 264.12838521 336.76164234 267.875 342.8125 C273.63575615 352.12411594 279.31564675 361.47910929 284.9375 370.875 C290.78306092 380.64307717 296.64949969 390.39757397 302.5625 400.125 C302.9112619 400.6987738 303.2600238 401.27254761 303.61935425 401.8637085 C305.37612643 404.75350712 307.13348615 407.64294788 308.89111328 410.53222656 C311.01122251 414.01779865 313.12897417 417.50479889 315.24609375 420.9921875 C315.773489 421.86080917 315.773489 421.86080917 316.3115387 422.74697876 C318.07198123 425.64667654 319.83166686 428.54682978 321.59008789 431.44775391 C324.91325265 436.92826122 328.24389016 442.40385273 331.59802246 447.86547852 C333.18590917 450.45199897 334.76998289 453.04084433 336.35375977 455.62988281 C337.11145508 456.86608007 337.87102697 458.10112928 338.63256836 459.33496094 C339.68683998 461.0433256 340.73420438 462.75594705 341.78125 464.46875 C342.38001953 465.44263672 342.97878906 466.41652344 343.59570312 467.41992188 C345 470 345 470 346 474 C343.36 476.31 340.72 478.62 338 481 C334.75004968 478.01004571 332.61740901 474.96492479 330.41796875 471.14453125 C330.08739975 470.57499725 329.75683075 470.00546326 329.41624451 469.41867065 C328.70565554 468.1930523 327.99783725 466.96582413 327.2925415 465.7371521 C325.39641389 462.43466438 323.47950751 459.14423588 321.56640625 455.8515625 C321.17898254 455.18333969 320.79155884 454.51511688 320.39239502 453.8266449 C316.86278934 447.74424713 313.25656916 441.70955068 309.625 435.6875 C304.32711244 426.89199861 299.07158693 418.07258924 293.83938599 409.23794556 C287.35274544 398.28549432 280.81574639 387.36736017 274.1875 376.5 C269.08405197 368.13061942 264.04775032 359.72727405 259.125 351.25 C258.57521484 350.30560059 258.02542969 349.36120117 257.45898438 348.38818359 C254.86458874 343.93082257 252.27232981 339.47229453 249.69189453 335.00683594 C247.61599751 331.41684678 245.52704097 327.83468345 243.43133545 324.25622559 C242.61572644 322.85873623 241.80425285 321.45882333 240.99737549 320.05627441 C234.30127389 308.42411303 226.96488917 298.6442129 216.0625 290.5625 C214.98548828 289.75135742 214.98548828 289.75135742 213.88671875 288.92382812 C203.82860951 281.48465563 193.05603735 275.14662788 182.06054688 269.20483398 C160.34955908 256.51007986 150.61505323 221.6236738 141.4609375 200.01953125 C133.40750958 181.07047651 125.25692407 163.34840865 111.56689453 147.78613281 C109.60319957 145.54767966 107.69477366 143.26583762 105.78466797 140.98168945 C104.00221552 138.85586133 102.20130058 136.74614792 100.39892578 134.63720703 C98.91854166 132.90466674 97.44168642 131.16915339 95.96484375 129.43359375 C91.47586476 124.16808522 86.96942678 118.93106995 82.3125 113.8125 C79.35867819 110.56329601 76.55550252 107.24125315 73.8125 103.8125 C68.90996514 97.74679782 63.57741963 92.11835023 58.23046875 86.4453125 C55.28967421 83.32224078 52.43600823 80.13727908 49.63671875 76.88671875 C47.62126228 74.56341213 45.56151538 72.28251535 43.5 70 C40.82951656 67.04130249 38.17701942 64.07073528 35.5625 61.0625 C31.90821138 56.86557919 28.15255027 52.7634724 24.40234375 48.65234375 C22.43058156 46.47539004 20.48634663 44.28161326 18.5625 42.0625 C15.60116544 38.65311482 12.55849695 35.32203624 9.5 32 C5.88716735 28.07586302 2.32132353 24.11997847 -1.1640625 20.08203125 C-2.63581974 18.41299591 -4.13742771 16.77030308 -5.6484375 15.13671875 C-6.10919678 14.63857666 -6.56995605 14.14043457 -7.04467773 13.62719727 C-8.37895896 12.18813813 -9.7186558 10.75410602 -11.05859375 9.3203125 C-13 7 -13 7 -13 5 C-8.71 3.35 -4.42 1.7 0 0 Z " fill="#E59B51" transform="translate(871,886)"/>
<path d="M0 0 C1.31806641 -0.01224609 2.63613281 -0.02449219 3.99414062 -0.03710938 C5.25806641 -0.03904297 6.52199219 -0.04097656 7.82421875 -0.04296875 C8.97365967 -0.04707764 10.12310059 -0.05118652 11.30737305 -0.05541992 C14.21098634 0.17929413 15.86208742 0.67282911 18.3125 2.1875 C17.66925781 2.21328125 17.02601563 2.2390625 16.36328125 2.265625 C-14.8892957 4.22727034 -48.30072147 24.01356281 -73.6875 41.1875 C-74.63326904 41.82486084 -74.63326904 41.82486084 -75.59814453 42.47509766 C-97.67098056 57.48177114 -126.98194966 77.46523777 -132.6875 105.1875 C-134.77184295 123.3173509 -125.72026211 139.05510512 -118.65164185 155.26660156 C-116.16324136 160.9744094 -113.68964007 166.68862742 -111.21484375 172.40234375 C-110.72930527 173.52244843 -110.24376678 174.6425531 -109.74351501 175.79660034 C-105.50632002 185.58129213 -101.36699324 195.40344013 -97.26782227 205.24658203 C-92.49931633 216.68249374 -87.61349884 228.06706294 -82.70922852 239.4453125 C-81.02507512 243.3550613 -79.35365399 247.27004511 -77.6875 251.1875 C-77.24035645 252.2295459 -76.79321289 253.2715918 -76.33251953 254.34521484 C-75.95595215 255.24578613 -75.57938477 256.14635742 -75.19140625 257.07421875 C-74.71102905 258.21250122 -74.71102905 258.21250122 -74.22094727 259.3737793 C-73.6875 261.1875 -73.6875 261.1875 -74.6875 263.1875 C-85.15778236 245.33051275 -95.46064516 227.38139161 -105.70825195 209.39599609 C-107.7398289 205.83064904 -109.77222844 202.2657734 -111.80596924 198.70166016 C-112.47542917 197.52828863 -113.14466041 196.35478659 -113.81365967 195.18115234 C-117.95081972 187.92509313 -122.13832069 180.70179194 -126.38037109 173.5065918 C-156.71817721 121.98314399 -156.71817721 121.98314399 -149.8828125 93.13671875 C-138.08143715 57.20356554 -99.55055546 34.2309197 -67.99975586 17.7277832 C-46.22071046 6.73553981 -24.4684856 0.01207128 0 0 Z " fill="#E59B51" transform="translate(1320.6875,1019.8125)"/>
<path d="M0 0 C1.04796218 0.84643099 2.08792692 1.70276192 3.125 2.5625 C3.70507812 3.03816406 4.28515625 3.51382813 4.8828125 4.00390625 C7.83936049 6.79135279 10.39985777 9.88231181 13 13 C-3.81951647 19.36809342 -20.70466942 25.53869632 -37.63040161 31.6182251 C-43.7040319 33.80070664 -49.7757033 35.98863861 -55.84765625 38.17578125 C-56.86981924 38.54389105 -56.86981924 38.54389105 -57.91263199 38.91943741 C-71.78608882 43.91610892 -85.64481521 48.95289046 -99.5 54 C-118.82019575 61.03665184 -138.15518096 68.03141043 -157.5 75 C-177.71882812 82.28376773 -197.9284478 89.59216591 -218.125 96.9375 C-219.25623291 97.3487915 -220.38746582 97.76008301 -221.55297852 98.18383789 C-223.73982743 98.97907028 -225.92653789 99.77468351 -228.11309814 100.57070923 C-230.17796423 101.32196493 -232.24333802 102.07182694 -234.30926514 102.82015991 C-239.08685706 104.55446163 -243.84921901 106.31713846 -248.58886719 108.15283203 C-249.46187469 108.4870668 -250.3348822 108.82130157 -251.23434448 109.16566467 C-252.85121761 109.78669215 -254.46431922 110.41767477 -256.07254028 111.06077576 C-260.0941623 112.5972066 -262.86281635 113.45134107 -267 112 C-269.44967679 110.82017501 -271.67088852 109.41573443 -274 108 C-271.36064601 105.89450369 -268.92992715 104.40126388 -265.7902832 103.16918945 C-264.96026794 102.84002029 -264.13025269 102.51085114 -263.27508545 102.17170715 C-262.37606506 101.82242661 -261.47704468 101.47314606 -260.55078125 101.11328125 C-259.60317932 100.7395488 -258.65557739 100.36581635 -257.67926025 99.98075867 C-254.55931693 98.75203553 -251.43598491 97.53218905 -248.3125 96.3125 C-246.12407749 95.45295777 -243.93584725 94.59292586 -241.74780273 93.73242188 C-236.20440282 91.55424619 -230.65808153 89.38362692 -225.1105957 87.21588135 C-222.24310263 86.09502487 -219.37625528 84.9725408 -216.50976562 83.84912109 C-191.49648967 74.04660305 -166.4437148 64.34533568 -141.39280701 54.63949585 C-131.11120882 50.65592696 -120.83070815 46.66953018 -110.55032349 42.68283081 C-107.50357395 41.50138588 -104.45675403 40.32012266 -101.40991211 39.13891602 C-92.08193045 35.52251707 -82.75433508 31.90513327 -73.42826843 28.28379822 C-48.97728709 18.7895088 -24.51448893 9.32924555 0 0 Z " fill="#E49A51" transform="translate(839,929)"/>
<path d="M0 0 C1.11375 0.33 2.2275 0.66 3.375 1 C3.705 2.65 4.035 4.3 4.375 6 C-55.125 52.75 -55.125 52.75 -56.87475586 54.12475586 C-58.0423041 55.04215009 -59.20978449 55.95963067 -60.37719727 56.87719727 C-63.2798279 59.15844245 -66.18359274 61.43821214 -69.08984375 63.71484375 C-74.44195098 67.91000342 -79.78142325 72.1182858 -85.08007812 76.38085938 C-91.01171411 81.15236466 -96.99836132 85.83538133 -103.0625 90.4375 C-109.44144958 95.27993016 -115.68923312 100.25852791 -121.88427734 105.33349609 C-125.93504873 108.64575677 -130.02611609 111.89042864 -134.1875 115.0625 C-138.18791213 118.11207526 -142.1438827 121.20223498 -146.05908203 124.36035156 C-149.23582985 126.92189867 -152.42832352 129.46338812 -155.625 132 C-156.3375293 132.56702637 -157.05005859 133.13405273 -157.78417969 133.71826172 C-159.94932455 135.43093823 -162.12849752 137.1239645 -164.3125 138.8125 C-164.98385986 139.34665527 -165.65521973 139.88081055 -166.34692383 140.43115234 C-171.06800008 144.0392272 -171.06800008 144.0392272 -173.69458008 143.85424805 C-177.13357319 142.33242727 -177.96809575 139.25463335 -179.625 136 C-178.89539062 135.44054688 -178.16578125 134.88109375 -177.4140625 134.3046875 C-167.78557558 126.9109605 -158.20305934 119.45887893 -148.625 112 C-139.43853937 104.84607715 -130.24663273 97.70067657 -121.01171875 90.609375 C-114.63778359 85.70605374 -108.30053266 80.7551514 -101.95556641 75.81445312 C-98.17982734 72.87486662 -94.40234465 69.93752285 -90.625 67 C-89.12499123 65.83334461 -87.62499124 64.66667793 -86.125 63.5 C-83.125 61.16666667 -80.125 58.83333333 -77.125 56.5 C-76.38209717 55.92217773 -75.63919434 55.34435547 -74.8737793 54.74902344 C-73.37788338 53.58556688 -71.88195255 52.42215522 -70.38598633 51.25878906 C-66.57290224 48.29338002 -62.76047936 45.32712738 -58.94921875 42.359375 C-52.35298614 37.22405297 -45.75531163 32.0912807 -39.125 27 C-34.68010758 23.58605221 -30.24386943 20.16132092 -25.81787109 16.72290039 C-24.24344619 15.50066223 -22.66697728 14.28105207 -21.08837891 13.06420898 C-17.83349313 10.54653497 -14.60633964 8.03342531 -11.53515625 5.29296875 C-4.89172984 -0.55201812 -4.89172984 -0.55201812 0 0 Z " fill="#E59B52" transform="translate(1418.625,1193)"/>
<path d="M0 0 C2.24956302 2.24956302 3.00510965 4.06323263 4.1875 7 C4.55230469 7.886875 4.91710938 8.77375 5.29296875 9.6875 C6 12 6 12 5 14 C3.964031 12.42652824 2.94668268 10.84078454 1.9375 9.25 C1.36902344 8.36828125 0.80054688 7.4865625 0.21484375 6.578125 C-1 4 -1 4 -0.68359375 1.671875 C-0.45800781 1.12015625 -0.23242188 0.5684375 0 0 Z " fill="#DE9147" transform="translate(1241,1269)"/>
</svg>
